<svg width="512" height="512" viewBox="0 0 512 512" fill="none" xmlns="http://www.w3.org/2000/svg">
<g clip-path="url(#clip0)">
<path d="M478.201 226.051C460.745 199.244 436.592 173.863 406.412 150.612C373.307 125.107 340.435 107.885 321.068 98.795L347.976 29.15C348.862 26.856 349.317 24.416 349.317 21.956V19.96C349.317 13.403 346.096 7.26496 340.702 3.53796C335.308 -0.189044 328.427 -1.02904 322.294 1.28996C277.334 18.295 233.637 18.298 188.711 1.29096C182.578 -1.02904 175.696 -0.191044 170.3 3.53596C164.905 7.26296 161.684 13.403 161.684 19.96V21.956C161.684 24.416 162.139 26.855 163.025 29.15L189.946 98.828C170.667 107.926 137.972 125.147 105.049 150.642C75.018 173.897 50.985 199.281 33.617 226.09C11.311 260.523 0 297.282 0 335.345C0 387.555 15.811 431.777 45.724 463.23C74.915 493.925 115.583 510.769 163.329 511.94C163.49 511.944 163.65 511.946 163.812 511.946L343.817 512C343.961 512 344.104 511.999 344.248 511.996C402.389 510.755 450.769 486.821 480.479 444.602C486.823 435.587 484.657 423.135 475.641 416.79C466.625 410.445 454.174 412.61 447.829 421.627C425.644 453.153 388.64 471.065 343.607 472.078L164.073 472.024C87.489 470.04 39.922 417.688 39.922 335.345C39.922 280.001 69.807 228.672 128.745 182.788C167.579 152.555 207.102 134.627 218.546 129.748H282.79C283.086 130.006 283.392 130.272 283.708 130.547C354.396 192.042 390.238 254.567 390.238 316.383C390.238 327.407 399.175 336.344 410.199 336.344C421.223 336.344 430.16 327.407 430.16 316.383C430.16 272.945 416.084 229.546 388.294 187.179C431.325 221.856 472.078 271.539 472.078 335.345C472.078 346.369 481.015 355.306 492.039 355.306C503.063 355.306 512 346.369 512 335.345C512 297.265 500.628 260.493 478.201 226.051ZM281.736 89.824H229.265L213.817 49.84C241.567 55.211 269.428 55.209 297.185 49.835L281.736 89.824Z" fill="#107869"/>
<path d="M255.481 440.14C266.505 440.14 275.442 431.203 275.442 420.179V408.619C302.9 404.783 323.368 382.199 323.368 354.058V349.159C323.368 334.076 317.465 319.986 306.744 309.486C296.173 299.131 282.097 293.428 267.112 293.428H248.821C240.027 293.428 232.599 285.658 232.599 276.461V269.181C232.599 260.244 239.573 253.506 248.821 253.506H266.118C271.201 253.506 276.46 256.909 276.46 262.604C276.46 273.628 285.397 282.565 296.421 282.565C307.445 282.565 316.382 273.628 316.382 262.604C316.382 238.682 298.717 218.72 275.442 214.443V201.607C275.442 190.583 266.505 181.646 255.481 181.646C244.457 181.646 235.52 190.583 235.52 201.607V215.129C225.64 217.461 216.591 222.387 209.252 229.568C198.563 240.028 192.676 254.096 192.676 269.182V276.462C192.676 307.831 217.862 333.351 248.82 333.351H267.111C276.271 333.351 283.445 340.295 283.445 349.16V354.059C283.445 362.736 276.423 369.28 267.111 369.28H237.384C232.479 369.28 227.513 366.195 227.513 360.298C227.513 349.274 218.576 340.337 207.552 340.337C196.528 340.337 187.591 349.274 187.591 360.298C187.591 387.106 208.496 408.223 235.517 409.158V420.181C235.52 431.204 244.457 440.14 255.481 440.14Z" fill="#107869"/>
</g>
<defs>
<clipPath id="clip0">
<rect width="512" height="512" fill="white"/>
</clipPath>
</defs>
</svg>
