<svg width="512" height="512" viewBox="0 0 512 512" fill="none" xmlns="http://www.w3.org/2000/svg">
<path d="M196.233 71.8413H156.389C145.386 71.8413 136.467 80.7603 136.467 91.7633C136.467 102.766 145.386 111.685 156.389 111.685H196.233C207.236 111.685 216.155 102.766 216.155 91.7633C216.155 80.7603 207.237 71.8413 196.233 71.8413Z" fill="#107869"/>
<path d="M176.311 440.401C187.314 440.401 196.233 431.482 196.233 420.479C196.233 409.477 187.314 400.557 176.311 400.557C165.308 400.557 156.389 409.477 156.389 420.479C156.389 431.482 165.308 440.401 176.311 440.401Z" fill="#107869"/>
<path d="M352.623 90.9241V80.6851C352.623 36.7451 316.875 0.996094 272.934 0.996094H79.689C35.748 0.996094 0 36.7441 0 80.6851V431.315C0 475.255 35.748 511.004 79.689 511.004H272.934C316.874 511.004 352.623 475.256 352.623 431.315V423.302C377.39 422.258 401.784 415.692 423.575 404.12C433.293 398.959 436.988 386.898 431.827 377.181C426.666 367.464 414.605 363.769 404.888 368.929C386.787 378.541 366.302 383.623 345.65 383.623C275.895 383.623 219.144 326.873 219.144 257.117C219.144 187.361 275.894 130.611 345.65 130.611C415.406 130.611 472.156 187.361 472.156 257.117C472.156 274.959 468.523 292.197 461.356 308.35C456.895 318.408 461.431 330.179 471.488 334.64C481.548 339.099 493.317 334.565 497.778 324.508C507.215 303.235 512 280.561 512 257.118C512 167.729 441.126 94.5921 352.623 90.9241ZM312.778 94.0361C236.743 109.337 179.3 176.642 179.3 257.118C179.3 337.594 236.743 404.898 312.778 420.2V431.316C312.778 453.286 294.904 471.16 272.934 471.16H79.689C57.719 471.16 39.845 453.286 39.845 431.316V80.6851C39.845 58.7151 57.719 40.8411 79.689 40.8411H272.934C294.904 40.8411 312.778 58.7151 312.778 80.6851V94.0361V94.0361Z" fill="#107869"/>
<path d="M345.65 356.729C356.653 356.729 365.572 347.81 365.572 336.807V333.408C385.585 328.366 400.436 310.322 400.436 288.895V280.909C400.436 255.644 379.701 235.088 354.215 235.088H340.96C337.605 235.088 334.663 231.884 334.663 228.231V227.39C334.663 223.894 337.37 221.258 340.96 221.258H365.572C376.575 221.258 385.494 212.339 385.494 201.336C385.494 190.333 376.575 181.414 365.572 181.414V178.426C365.572 167.423 356.653 158.504 345.65 158.504C334.647 158.504 325.728 167.423 325.728 178.426V184C307.749 190.285 294.819 207.357 294.819 227.391V228.232C294.819 253.983 315.518 274.934 340.961 274.934H354.215C357.851 274.934 360.592 277.504 360.592 280.911V288.897C360.592 292.361 357.851 294.973 354.215 294.973H313.775C302.772 294.973 293.853 303.892 293.853 314.895C293.853 325.898 302.772 334.817 313.775 334.817H325.728V336.809C325.728 347.809 334.647 356.729 345.65 356.729Z" fill="#107869"/>
</svg>
