<svg width="512" height="512" viewBox="0 0 512 512" fill="none" xmlns="http://www.w3.org/2000/svg">
<g clip-path="url(#clip0)">
<path d="M405 257.002C371.916 257.002 345 283.918 345 317.002C345 350.086 371.916 377.002 405 377.002H490C490.339 377.002 490.67 376.968 491.005 376.951C491.337 376.967 491.664 377.001 492 377.001C503.046 377.001 512 368.047 512 357.001V200.001C512 173.375 498.913 149.76 478.845 135.211L410.805 23.5912C408.031 19.0392 403.554 15.7832 398.368 14.5472C393.182 13.3092 387.718 14.1942 383.187 17.0042L333.01 48.1202L310.382 9.82621C307.661 5.22221 303.211 1.90021 298.024 0.600211C292.838 -0.699789 287.345 0.133211 282.776 2.90921L90.109 120.001H60C49.139 120.001 40.272 111.299 40.006 100.501C40.272 89.7032 49.139 81.0012 60 81.0012H97C108.046 81.0012 117 72.0472 117 61.0012C117 49.9552 108.046 41.0012 97 41.0012H60C31.702 41.0012 7.919 60.6952 1.63 87.0962C0.584 89.5222 0 92.1922 0 95.0012V100.001V101.001V432.001C0 476.113 35.888 512.001 80 512.001H432C466.49 512.001 496.993 490.03 507.901 457.33C511.397 446.852 505.736 435.524 495.258 432.029C484.781 428.534 473.452 434.194 469.957 444.672C464.504 461.018 449.251 472.001 432 472.001H80C57.944 472.001 40 454.057 40 432.001V156.57C46.259 158.79 52.99 160.001 60 160.001H432C454.056 160.001 472 177.945 472 200.001V257.002H405ZM472 337.001H405C393.972 337.002 385 328.03 385 317.001C385 305.973 393.972 297.001 405 297.001H472V337.001ZM167.128 120.002L286.247 47.6092L307.544 83.6502C307.953 84.6352 308.423 85.6062 309.003 86.5422C309.438 87.2432 309.92 87.8962 310.423 88.5242L329.023 120.002H167.128ZM375.485 120.001L353.364 82.5652L387.14 61.6202L422.728 120.001H375.485Z" fill="#107869"/>
</g>
<defs>
<clipPath id="clip0">
<rect width="512.001" height="512.001" fill="white"/>
</clipPath>
</defs>
</svg>
