<svg width="512" height="512" viewBox="0 0 512 512" fill="none" xmlns="http://www.w3.org/2000/svg">
<path d="M437 268.152H386.882C380.061 268.152 373.457 269.084 367.172 270.798C354.774 246.426 329.462 229.68 300.295 229.68H211.705C182.538 229.68 157.226 246.426 144.828 270.798C138.543 269.084 131.939 268.152 125.118 268.152H75C33.645 268.152 0 301.797 0 343.152V423.27C0 448.083 20.187 468.27 45 468.27H467C491.813 468.27 512 448.083 512 423.27V343.152C512 301.797 478.355 268.152 437 268.152ZM136.705 304.682V438.271H45C36.729 438.271 30 431.542 30 423.271V343.153C30 318.34 50.187 298.153 75 298.153H125.118C129.19 298.153 133.133 298.706 136.887 299.725C136.779 301.366 136.705 303.016 136.705 304.682ZM345.295 438.271H166.705V304.681C166.705 279.868 186.892 259.681 211.705 259.681H300.295C325.108 259.681 345.295 279.868 345.295 304.681V438.271ZM482 423.271C482 431.542 475.271 438.271 467 438.271H375.295V304.681C375.295 303.014 375.221 301.364 375.113 299.724C378.867 298.706 382.81 298.152 386.882 298.152H437C461.813 298.152 482 318.339 482 343.152V423.271Z" fill="#107869"/>
<path d="M100.06 126.504C63.311 126.504 33.414 156.401 33.414 193.15C33.413 229.899 63.311 259.796 100.06 259.796C136.808 259.796 166.706 229.899 166.706 193.15C166.706 156.401 136.809 126.504 100.06 126.504ZM100.059 229.796C79.852 229.796 63.413 213.357 63.413 193.15C63.413 172.943 79.852 156.504 100.059 156.504C120.266 156.504 136.705 172.943 136.705 193.15C136.705 213.357 120.266 229.796 100.059 229.796Z" fill="#107869"/>
<path d="M256 43.729C206.904 43.729 166.962 83.671 166.962 132.767C166.962 181.863 206.904 221.805 256 221.805C305.096 221.805 345.038 181.863 345.038 132.767C345.038 83.672 305.096 43.729 256 43.729ZM256 191.805C223.446 191.805 196.962 165.321 196.962 132.767C196.962 100.214 223.446 73.729 256 73.729C288.554 73.729 315.038 100.213 315.038 132.767C315.038 165.321 288.554 191.805 256 191.805Z" fill="#107869"/>
<path d="M411.94 126.504C375.192 126.504 345.294 156.401 345.294 193.15C345.295 229.899 375.192 259.796 411.94 259.796C448.689 259.796 478.586 229.899 478.586 193.15C478.586 156.401 448.689 126.504 411.94 126.504ZM411.94 229.796C391.734 229.796 375.294 213.357 375.294 193.15C375.295 172.943 391.734 156.504 411.94 156.504C432.147 156.504 448.586 172.943 448.586 193.15C448.586 213.357 432.147 229.796 411.94 229.796Z" fill="#107869"/>
</svg>
