<svg width="463" height="293" viewBox="0 0 463 293" fill="none" xmlns="http://www.w3.org/2000/svg">
<path d="M16.28 156.392V182.736H92.056L12.432 262.656V289H129.944V263.248H51.208L129.944 183.624V156.392H16.28ZM218.423 153.432C179.055 153.432 149.159 184.216 149.159 223.288C149.159 262.064 180.535 292.256 219.903 292.256C245.063 291.96 267.855 281.6 280.583 262.952L259.567 245.488C249.799 256.44 237.367 262.952 221.383 262.952H220.199C199.775 262.952 183.199 246.672 183.199 228.32H283.543V216.184C283.543 177.408 257.495 153.432 219.903 153.432H218.423ZM250.095 202.864H186.159C188.527 194.872 203.623 183.624 218.719 183.624C233.815 183.624 247.135 188.656 250.095 202.864ZM409.361 174.448C401.665 158.76 389.233 153.432 372.953 153.432H372.361C339.505 153.432 310.793 177.704 310.497 219.144C310.793 266.208 336.249 292.256 372.953 292.256C390.121 292.256 401.961 284.856 409.361 270.648V289H441.921V67H409.361V174.448ZM349.865 219.144C349.865 196.352 360.817 185.992 377.689 185.992C397.521 185.992 409.361 197.536 409.361 221.808C409.361 245.784 397.521 260.584 377.689 260.584H376.801C357.857 260.584 349.865 242.824 349.865 219.144Z" fill="white"/>
</svg>
