<svg width="937" height="608" viewBox="0 0 937 608" fill="none" xmlns="http://www.w3.org/2000/svg">
<path d="M33 316.2V369.6H186.6L25.2 531.6V585H263.4V532.8H103.8L263.4 371.4V316.2H33ZM442.748 310.2C362.948 310.2 302.348 372.6 302.348 451.8C302.348 530.4 365.948 591.6 445.748 591.6C496.748 591 542.948 570 568.748 532.2L526.148 496.8C506.348 519 481.148 532.2 448.748 532.2H446.348C404.948 532.2 371.348 499.2 371.348 462H574.748V437.4C574.748 358.8 521.948 310.2 445.748 310.2H442.748ZM506.948 410.4H377.348C382.148 394.2 412.748 371.4 443.348 371.4C473.948 371.4 500.948 381.6 506.948 410.4ZM829.786 352.8C814.186 321 788.986 310.2 755.986 310.2H754.786C688.186 310.2 629.986 359.4 629.386 443.4C629.986 538.8 681.586 591.6 755.986 591.6C790.786 591.6 814.786 576.6 829.786 547.8V585H895.786V135H829.786V352.8ZM709.186 443.4C709.186 397.2 731.386 376.2 765.586 376.2C805.786 376.2 829.786 399.6 829.786 448.8C829.786 497.4 805.786 527.4 765.586 527.4H763.786C725.386 527.4 709.186 491.4 709.186 443.4Z" fill="white"/>
</svg>
