<svg width="1405" height="900" viewBox="0 0 1405 900" fill="none" xmlns="http://www.w3.org/2000/svg">
<path d="M49.5 474.8V554.9H279.9L37.8 797.9V878H395.1V799.7H155.7L395.1 557.6V474.8H49.5ZM664.123 465.8C544.423 465.8 453.523 559.4 453.523 678.2C453.523 796.1 548.923 887.9 668.623 887.9C745.123 887 814.423 855.5 853.123 798.8L789.223 745.7C759.523 779 721.723 798.8 673.123 798.8H669.523C607.423 798.8 557.023 749.3 557.023 693.5H862.123V656.6C862.123 538.7 782.923 465.8 668.623 465.8H664.123ZM760.423 616.1H566.023C573.223 591.8 619.123 557.6 665.023 557.6C710.923 557.6 751.423 572.9 760.423 616.1ZM1244.68 529.7C1221.28 482 1183.48 465.8 1133.98 465.8H1132.18C1032.28 465.8 944.979 539.6 944.079 665.6C944.979 808.7 1022.38 887.9 1133.98 887.9C1186.18 887.9 1222.18 865.4 1244.68 822.2V878H1343.68V203H1244.68V529.7ZM1063.78 665.6C1063.78 596.3 1097.08 564.8 1148.38 564.8C1208.68 564.8 1244.68 599.9 1244.68 673.7C1244.68 746.6 1208.68 791.6 1148.38 791.6H1145.68C1088.08 791.6 1063.78 737.6 1063.78 665.6Z" fill="white"/>
</svg>
