<svg width="514" height="74" viewBox="0 0 514 74" fill="none" xmlns="http://www.w3.org/2000/svg">
<path d="M1.976 4.8V14.784H34.52L0.632 72H51.992V62.208H17.72L51.608 4.8H1.976ZM80.9023 28.032C68.1343 28.032 58.4383 38.016 58.4383 50.688C58.4383 63.264 68.6143 73.056 81.3823 73.056C89.5423 72.96 96.9343 69.6 101.062 63.552L94.2463 57.888C91.0783 61.44 87.0463 63.552 81.8623 63.552H81.4783C74.8543 63.552 69.4783 58.272 69.4783 52.32H102.022V48.384C102.022 35.808 93.5743 28.032 81.3823 28.032H80.9023ZM91.1743 44.064H70.4383C71.2063 41.472 76.1023 37.824 80.9983 37.824C85.8943 37.824 90.2143 39.456 91.1743 44.064ZM142.828 34.848C140.332 29.76 136.3 28.032 131.02 28.032H130.828C120.172 28.032 110.86 35.904 110.764 49.344C110.86 64.608 119.116 73.056 131.02 73.056C136.588 73.056 140.428 70.656 142.828 66.048V72H153.388V-5.72205e-06H142.828V34.848ZM123.532 49.344C123.532 41.952 127.084 38.592 132.556 38.592C138.988 38.592 142.828 42.336 142.828 50.208C142.828 57.984 138.988 62.784 132.556 62.784H132.268C126.124 62.784 123.532 57.024 123.532 49.344ZM198.28 4.8V72H209.32V38.016H234.664V27.648H209.32V15.36H234.664V4.8H198.28ZM244.593 28.992V72H255.249V28.992H244.593ZM249.969 6.23999C246.129 6.23999 243.153 9.12 243.153 12.864C243.153 16.608 246.129 19.488 249.969 19.488C253.809 19.488 256.785 16.608 256.785 12.864C256.785 9.12 253.809 6.23999 249.969 6.23999ZM308.339 46.848C308.339 34.368 302.291 28.032 291.155 28.032C285.971 28.032 282.227 30.336 279.251 35.04V29.184H268.499V72H279.251V48.384C279.443 42.432 283.091 38.592 289.619 38.592C294.323 38.688 296.531 41.568 296.531 47.04V72H308.339V46.848ZM350.951 34.752C348.455 30.048 344.423 28.032 339.143 28.032C327.143 28.032 318.887 37.152 318.887 50.592C318.887 64.128 327.239 72.96 339.143 72.96C344.711 72.96 348.551 70.848 350.951 66.528V72H361.511V28.992H350.951V34.752ZM331.655 50.592C331.655 42.912 335.207 38.592 340.679 38.592C347.111 38.592 350.951 43.104 350.951 50.592C350.951 58.176 347.111 62.784 340.679 62.784C334.919 62.784 331.655 58.08 331.655 50.592ZM414.558 46.848C414.558 34.368 408.51 28.032 397.374 28.032C392.19 28.032 388.446 30.336 385.47 35.04V29.184H374.718V72H385.47V48.384C385.662 42.432 389.31 38.592 395.838 38.592C400.542 38.688 402.75 41.568 402.75 47.04V72H414.558V46.848ZM447.282 28.032C434.898 28.032 424.626 38.016 424.626 50.688C424.626 63.264 434.898 73.056 447.282 73.056C453.234 73.056 457.842 71.232 463.122 67.104L456.306 59.424C453.906 61.824 450.93 63.264 447.474 63.264C441.33 63.264 436.338 57.6 436.338 50.688C436.338 43.872 441.33 37.824 447.474 37.824C450.834 37.824 453.906 39.552 456.306 41.952L463.122 34.848C458.418 29.856 452.274 28.32 447.282 28.032ZM492.371 28.032C479.603 28.032 469.907 38.016 469.907 50.688C469.907 63.264 480.083 73.056 492.851 73.056C501.011 72.96 508.403 69.6 512.531 63.552L505.715 57.888C502.547 61.44 498.515 63.552 493.331 63.552H492.947C486.323 63.552 480.947 58.272 480.947 52.32H513.491V48.384C513.491 35.808 505.043 28.032 492.851 28.032H492.371ZM502.643 44.064H481.907C482.675 41.472 487.571 37.824 492.467 37.824C497.363 37.824 501.683 39.456 502.643 44.064Z" fill="white"/>
</svg>
