<svg width="500" height="74" viewBox="0 0 500 74" fill="none" xmlns="http://www.w3.org/2000/svg">
<path d="M1.28 28.992V37.536H25.856L0.0320003 63.456V72H38.144V63.648H12.608L38.144 37.824V28.992H1.28ZM66.8398 28.032C54.0718 28.032 44.3758 38.016 44.3758 50.688C44.3758 63.264 54.5518 73.056 67.3198 73.056C75.4798 72.96 82.8718 69.6 86.9998 63.552L80.1838 57.888C77.0158 61.44 72.9838 63.552 67.7998 63.552H67.4158C60.7918 63.552 55.4158 58.272 55.4158 52.32H87.9598V48.384C87.9598 35.808 79.5118 28.032 67.3198 28.032H66.8398ZM77.1118 44.064H56.3758C57.1438 41.472 62.0398 37.824 66.9358 37.824C71.8318 37.824 76.1518 39.456 77.1118 44.064ZM128.766 34.848C126.27 29.76 122.238 28.032 116.958 28.032H116.766C106.11 28.032 96.7978 35.904 96.7018 49.344C96.7978 64.608 105.054 73.056 116.958 73.056C122.526 73.056 126.366 70.656 128.766 66.048V72H139.326V-5.72205e-06H128.766V34.848ZM109.47 49.344C109.47 41.952 113.022 38.592 118.494 38.592C124.926 38.592 128.766 42.336 128.766 50.208C128.766 57.984 124.926 62.784 118.494 62.784H118.206C112.062 62.784 109.47 57.024 109.47 49.344ZM184.218 4.8V72H195.258V38.016H220.602V27.648H195.258V15.36H220.602V4.8H184.218ZM230.53 28.992V72H241.186V28.992H230.53ZM235.906 6.23999C232.066 6.23999 229.09 9.12 229.09 12.864C229.09 16.608 232.066 19.488 235.906 19.488C239.746 19.488 242.722 16.608 242.722 12.864C242.722 9.12 239.746 6.23999 235.906 6.23999ZM294.277 46.848C294.277 34.368 288.229 28.032 277.093 28.032C271.909 28.032 268.165 30.336 265.189 35.04V29.184H254.437V72H265.189V48.384C265.381 42.432 269.029 38.592 275.557 38.592C280.261 38.688 282.469 41.568 282.469 47.04V72H294.277V46.848ZM336.889 34.752C334.393 30.048 330.361 28.032 325.081 28.032C313.081 28.032 304.825 37.152 304.825 50.592C304.825 64.128 313.177 72.96 325.081 72.96C330.649 72.96 334.489 70.848 336.889 66.528V72H347.449V28.992H336.889V34.752ZM317.593 50.592C317.593 42.912 321.145 38.592 326.617 38.592C333.049 38.592 336.889 43.104 336.889 50.592C336.889 58.176 333.049 62.784 326.617 62.784C320.857 62.784 317.593 58.08 317.593 50.592ZM400.495 46.848C400.495 34.368 394.447 28.032 383.311 28.032C378.127 28.032 374.383 30.336 371.407 35.04V29.184H360.655V72H371.407V48.384C371.599 42.432 375.247 38.592 381.775 38.592C386.479 38.688 388.687 41.568 388.687 47.04V72H400.495V46.848ZM433.219 28.032C420.835 28.032 410.563 38.016 410.563 50.688C410.563 63.264 420.835 73.056 433.219 73.056C439.171 73.056 443.779 71.232 449.059 67.104L442.243 59.424C439.843 61.824 436.867 63.264 433.411 63.264C427.267 63.264 422.275 57.6 422.275 50.688C422.275 43.872 427.267 37.824 433.411 37.824C436.771 37.824 439.843 39.552 442.243 41.952L449.059 34.848C444.355 29.856 438.211 28.32 433.219 28.032ZM478.309 28.032C465.541 28.032 455.845 38.016 455.845 50.688C455.845 63.264 466.021 73.056 478.789 73.056C486.949 72.96 494.341 69.6 498.469 63.552L491.653 57.888C488.485 61.44 484.453 63.552 479.269 63.552H478.885C472.261 63.552 466.885 58.272 466.885 52.32H499.429V48.384C499.429 35.808 490.981 28.032 478.789 28.032H478.309ZM488.581 44.064H467.845C468.613 41.472 473.509 37.824 478.405 37.824C483.301 37.824 487.621 39.456 488.581 44.064Z" fill="white"/>
</svg>
